<mxfile host="app.diagrams.net" modified="2021-03-22T11:25:09.314Z" agent="5.0 (Macintosh; Intel Mac OS X 10_15_5) AppleWebKit/537.36 (KHTML, like Gecko) Chrome/88.0.4324.192 Safari/537.36 OPR/74.0.3911.218" etag="8-x2OfgVzXhvlp2dV53z" version="14.3.0" type="github">
  <diagram name="Page-1" id="74e2e168-ea6b-b213-b513-2b3c1d86103e">
    <mxGraphModel dx="1186" dy="747" grid="1" gridSize="10" guides="1" tooltips="1" connect="1" arrows="1" fold="1" page="1" pageScale="1" pageWidth="1100" pageHeight="850" background="#ffffff" math="0" shadow="0">
      <root>
        <mxCell id="0" />
        <mxCell id="1" parent="0" />
        <mxCell id="77e6c97f196da883-1" value="Device Enrolment" style="swimlane;html=1;childLayout=stackLayout;startSize=20;rounded=0;shadow=0;labelBackgroundColor=none;strokeWidth=1;fontFamily=Verdana;fontSize=8;align=center;" parent="1" vertex="1">
          <mxGeometry x="320" y="10" width="430" height="800" as="geometry">
            <mxRectangle x="70" y="40" width="50" height="20" as="alternateBounds" />
          </mxGeometry>
        </mxCell>
        <mxCell id="PNpXFueBDEGOKT5g1c5p-12" style="edgeStyle=orthogonalEdgeStyle;rounded=0;orthogonalLoop=1;jettySize=auto;html=1;exitX=1;exitY=0;exitDx=0;exitDy=0;entryX=0.145;entryY=0.001;entryDx=0;entryDy=0;entryPerimeter=0;" edge="1" parent="77e6c97f196da883-1" source="77e6c97f196da883-2" target="77e6c97f196da883-3">
          <mxGeometry relative="1" as="geometry" />
        </mxCell>
        <mxCell id="77e6c97f196da883-2" value="Device" style="swimlane;html=1;startSize=20;" parent="77e6c97f196da883-1" vertex="1">
          <mxGeometry y="20" width="190" height="780" as="geometry" />
        </mxCell>
        <mxCell id="PNpXFueBDEGOKT5g1c5p-15" style="edgeStyle=orthogonalEdgeStyle;rounded=0;orthogonalLoop=1;jettySize=auto;html=1;exitX=0.5;exitY=1;exitDx=0;exitDy=0;entryX=0.42;entryY=-0.125;entryDx=0;entryDy=0;entryPerimeter=0;" edge="1" parent="77e6c97f196da883-2" source="PNpXFueBDEGOKT5g1c5p-1" target="PNpXFueBDEGOKT5g1c5p-2">
          <mxGeometry relative="1" as="geometry" />
        </mxCell>
        <mxCell id="PNpXFueBDEGOKT5g1c5p-1" value="Obtain Uidentifier from User" style="rounded=0;whiteSpace=wrap;html=1;" vertex="1" parent="77e6c97f196da883-2">
          <mxGeometry x="21" y="40" width="120" height="40" as="geometry" />
        </mxCell>
        <mxCell id="PNpXFueBDEGOKT5g1c5p-2" value="&lt;p class=&quot;MsoNormal&quot; style=&quot;margin: 0cm ; text-indent: 0cm ; font-family: &amp;#34;times&amp;#34;&quot;&gt;&lt;font style=&quot;font-size: 14px&quot;&gt;&lt;br&gt;&lt;/font&gt;&lt;/p&gt;&lt;p class=&quot;MsoNormal&quot; style=&quot;margin: 0cm ; text-indent: 0cm&quot;&gt;&lt;font size=&quot;3&quot;&gt;&lt;font face=&quot;times&quot;&gt;P = { U&lt;/font&gt;&lt;sub&gt;&lt;font face=&quot;times&quot;&gt;identifier &lt;/font&gt;&lt;font face=&quot;symbol&quot;&gt;xor&lt;/font&gt;&lt;/sub&gt;&lt;span lang=&quot;EN-US&quot; style=&quot;font-family: &amp;#34;times&amp;#34;&quot;&gt;&amp;nbsp;&lt;/span&gt;&lt;/font&gt;&lt;span style=&quot;font-family: &amp;#34;times&amp;#34;&quot;&gt;&lt;font size=&quot;3&quot;&gt;t&lt;sub&gt;device&lt;/sub&gt;}&amp;nbsp;&lt;br&gt;&lt;/font&gt;&lt;br&gt;&lt;/span&gt;&lt;/p&gt;" style="rounded=0;whiteSpace=wrap;html=1;fontSize=13;" vertex="1" parent="77e6c97f196da883-2">
          <mxGeometry x="6.5" y="130" width="177.5" height="40" as="geometry" />
        </mxCell>
        <mxCell id="PNpXFueBDEGOKT5g1c5p-19" style="edgeStyle=orthogonalEdgeStyle;rounded=0;orthogonalLoop=1;jettySize=auto;html=1;exitX=0.5;exitY=1;exitDx=0;exitDy=0;entryX=0.5;entryY=0;entryDx=0;entryDy=0;" edge="1" parent="77e6c97f196da883-2" source="PNpXFueBDEGOKT5g1c5p-5" target="PNpXFueBDEGOKT5g1c5p-10">
          <mxGeometry relative="1" as="geometry" />
        </mxCell>
        <mxCell id="PNpXFueBDEGOKT5g1c5p-5" value="&lt;p class=&quot;MsoNormal&quot; align=&quot;left&quot; style=&quot;margin: 6pt 0cm ; text-align: left ; text-indent: 0cm ; font-size: 10pt ; font-family: &amp;#34;times&amp;#34;&quot;&gt;&lt;br&gt;&lt;/p&gt;&lt;p class=&quot;MsoNormal&quot; align=&quot;left&quot; style=&quot;margin: 6pt 0cm 6pt 11.35pt ; text-align: left ; text-indent: 0cm ; font-size: 10pt&quot;&gt;&lt;span style=&quot;font-size: 9pt&quot;&gt;&amp;nbsp; for i=0 to n-1, do:&lt;br&gt;&amp;nbsp;&amp;nbsp;&amp;nbsp;&amp;nbsp;&amp;nbsp;&amp;nbsp; R&lt;sub&gt;i&lt;/sub&gt;=PUF(C&lt;sub&gt;i&lt;/sub&gt;)&lt;br&gt;&lt;br&gt;&lt;/span&gt;&lt;/p&gt;&lt;p class=&quot;MsoNormal&quot; align=&quot;left&quot; style=&quot;margin: 0cm ; text-align: left ; text-indent: 0cm ; font-size: 10pt ; font-family: &amp;#34;times&amp;#34;&quot;&gt;&lt;br&gt;&lt;/p&gt;" style="rounded=0;whiteSpace=wrap;html=1;" vertex="1" parent="77e6c97f196da883-2">
          <mxGeometry x="38.75" y="370" width="121.25" height="50" as="geometry" />
        </mxCell>
        <mxCell id="PNpXFueBDEGOKT5g1c5p-7" value="&lt;span style=&quot;font-size: 9pt&quot;&gt;Store D&lt;sub&gt;id&lt;/sub&gt; and D&lt;sub&gt;limit&lt;/sub&gt; to memory.&lt;/span&gt;&lt;span style=&quot;font-size: medium&quot;&gt;&lt;/span&gt;" style="rounded=0;whiteSpace=wrap;html=1;" vertex="1" parent="77e6c97f196da883-2">
          <mxGeometry x="39.379999999999995" y="600" width="120" height="60" as="geometry" />
        </mxCell>
        <mxCell id="PNpXFueBDEGOKT5g1c5p-10" value="&lt;span style=&quot;color: rgb(0 , 0 , 0) ; font-size: 12px ; font-style: normal ; font-weight: 400 ; letter-spacing: normal ; text-align: left ; text-indent: 0px ; text-transform: none ; word-spacing: 0px ; background-color: rgb(248 , 249 , 250) ; display: inline ; float: none&quot;&gt;R = {h(R&lt;/span&gt;&lt;sub style=&quot;color: rgb(0 , 0 , 0) ; font-style: normal ; font-weight: 400 ; letter-spacing: normal ; text-align: left ; text-indent: 0px ; text-transform: none ; word-spacing: 0px ; background-color: rgb(248 , 249 , 250)&quot;&gt;1&lt;/sub&gt;&lt;span style=&quot;color: rgb(0 , 0 , 0) ; font-size: 12px ; font-style: normal ; font-weight: 400 ; letter-spacing: normal ; text-align: left ; text-indent: 0px ; text-transform: none ; word-spacing: 0px ; background-color: rgb(248 , 249 , 250) ; display: inline ; float: none&quot;&gt;),h(R&lt;/span&gt;&lt;sub style=&quot;color: rgb(0 , 0 , 0) ; font-style: normal ; font-weight: 400 ; letter-spacing: normal ; text-align: left ; text-indent: 0px ; text-transform: none ; word-spacing: 0px ; background-color: rgb(248 , 249 , 250)&quot;&gt;2&lt;/sub&gt;&lt;span style=&quot;color: rgb(0 , 0 , 0) ; font-size: 12px ; font-style: normal ; font-weight: 400 ; letter-spacing: normal ; text-align: left ; text-indent: 0px ; text-transform: none ; word-spacing: 0px ; background-color: rgb(248 , 249 , 250) ; display: inline ; float: none&quot;&gt;),â€¦h(R&lt;/span&gt;&lt;sub style=&quot;color: rgb(0 , 0 , 0) ; font-style: normal ; font-weight: 400 ; letter-spacing: normal ; text-align: left ; text-indent: 0px ; text-transform: none ; word-spacing: 0px ; background-color: rgb(248 , 249 , 250)&quot;&gt;n&lt;/sub&gt;&lt;span style=&quot;color: rgb(0 , 0 , 0) ; font-size: 12px ; font-style: normal ; font-weight: 400 ; letter-spacing: normal ; text-align: left ; text-indent: 0px ; text-transform: none ; word-spacing: 0px ; background-color: rgb(248 , 249 , 250) ; display: inline ; float: none&quot;&gt;), random string} to the server.&lt;/span&gt;" style="rounded=0;whiteSpace=wrap;html=1;" vertex="1" parent="77e6c97f196da883-2">
          <mxGeometry x="18.75" y="460" width="161.25" height="60" as="geometry" />
        </mxCell>
        <mxCell id="77e6c97f196da883-3" value="Server" style="swimlane;html=1;startSize=20;" parent="77e6c97f196da883-1" vertex="1">
          <mxGeometry x="190" y="20" width="240" height="780" as="geometry" />
        </mxCell>
        <mxCell id="PNpXFueBDEGOKT5g1c5p-14" style="edgeStyle=orthogonalEdgeStyle;rounded=0;orthogonalLoop=1;jettySize=auto;html=1;entryX=1;entryY=0.5;entryDx=0;entryDy=0;" edge="1" parent="77e6c97f196da883-3" source="PNpXFueBDEGOKT5g1c5p-3" target="PNpXFueBDEGOKT5g1c5p-8">
          <mxGeometry relative="1" as="geometry">
            <Array as="points">
              <mxPoint x="210" y="225" />
              <mxPoint x="210" y="730" />
            </Array>
          </mxGeometry>
        </mxCell>
        <mxCell id="PNpXFueBDEGOKT5g1c5p-17" style="edgeStyle=orthogonalEdgeStyle;rounded=0;orthogonalLoop=1;jettySize=auto;html=1;exitX=0.5;exitY=1;exitDx=0;exitDy=0;entryX=0.4;entryY=-0.05;entryDx=0;entryDy=0;entryPerimeter=0;" edge="1" parent="77e6c97f196da883-3">
          <mxGeometry relative="1" as="geometry">
            <mxPoint x="97" y="270" as="sourcePoint" />
            <mxPoint x="95" y="297" as="targetPoint" />
          </mxGeometry>
        </mxCell>
        <mxCell id="PNpXFueBDEGOKT5g1c5p-3" value="&lt;font style=&quot;font-size: 12px&quot;&gt;t&lt;sub&gt;server&lt;/sub&gt;-t&lt;sub&gt;device&lt;/sub&gt; &amp;gt; t&lt;sub&gt;delta&lt;/sub&gt;&lt;/font&gt;&lt;span style=&quot;font-size: medium&quot;&gt;&lt;/span&gt;" style="rhombus;whiteSpace=wrap;html=1;" vertex="1" parent="77e6c97f196da883-3">
          <mxGeometry x="30" y="180" width="130" height="90" as="geometry" />
        </mxCell>
        <mxCell id="PNpXFueBDEGOKT5g1c5p-4" value="Generate challenges" style="rounded=0;whiteSpace=wrap;html=1;" vertex="1" parent="77e6c97f196da883-3">
          <mxGeometry x="45" y="300" width="120" height="60" as="geometry" />
        </mxCell>
        <mxCell id="PNpXFueBDEGOKT5g1c5p-21" style="edgeStyle=orthogonalEdgeStyle;rounded=0;orthogonalLoop=1;jettySize=auto;html=1;exitX=0.5;exitY=1;exitDx=0;exitDy=0;entryX=0.5;entryY=0;entryDx=0;entryDy=0;" edge="1" parent="77e6c97f196da883-3">
          <mxGeometry relative="1" as="geometry">
            <mxPoint x="116.5" y="570" as="sourcePoint" />
            <mxPoint x="114" y="590" as="targetPoint" />
          </mxGeometry>
        </mxCell>
        <mxCell id="PNpXFueBDEGOKT5g1c5p-6" value="&lt;p class=&quot;MsoNormal&quot; align=&quot;left&quot; style=&quot;margin: 0cm ; text-align: left ; text-indent: 0cm ; font-size: 10pt&quot;&gt;&lt;span style=&quot;font-size: 9pt&quot;&gt;Generate&amp;nbsp; D&lt;sub&gt;id&lt;/sub&gt; for D&lt;sub&gt;iomt&lt;/sub&gt;&lt;/span&gt;&lt;/p&gt;&lt;p class=&quot;MsoNormal&quot; align=&quot;left&quot; style=&quot;margin: 0cm ; text-align: left ; text-indent: 0cm ; font-size: 10pt&quot;&gt;&lt;span style=&quot;font-size: 9pt&quot;&gt;D= {D&lt;sub&gt;id&lt;/sub&gt;, D&lt;sub&gt;limit&lt;/sub&gt; }&amp;nbsp;&lt;/span&gt;&lt;/p&gt;" style="rounded=0;whiteSpace=wrap;html=1;" vertex="1" parent="77e6c97f196da883-3">
          <mxGeometry x="40" y="520" width="145" height="50" as="geometry" />
        </mxCell>
        <mxCell id="PNpXFueBDEGOKT5g1c5p-8" value="Stop" style="rounded=1;whiteSpace=wrap;html=1;" vertex="1" parent="77e6c97f196da883-3">
          <mxGeometry x="52.5" y="700" width="120" height="60" as="geometry" />
        </mxCell>
        <mxCell id="PNpXFueBDEGOKT5g1c5p-23" style="edgeStyle=orthogonalEdgeStyle;rounded=0;orthogonalLoop=1;jettySize=auto;html=1;exitX=0.5;exitY=1;exitDx=0;exitDy=0;entryX=0.5;entryY=0;entryDx=0;entryDy=0;" edge="1" parent="77e6c97f196da883-3" source="PNpXFueBDEGOKT5g1c5p-9" target="PNpXFueBDEGOKT5g1c5p-8">
          <mxGeometry relative="1" as="geometry" />
        </mxCell>
        <mxCell id="PNpXFueBDEGOKT5g1c5p-9" value="&lt;div style=&quot;text-align: left&quot;&gt;&lt;span style=&quot;font-size: 9pt&quot;&gt;Store {CRP,D&lt;/span&gt;&lt;sub&gt;id&lt;/sub&gt;&lt;span style=&quot;font-size: 9pt&quot;&gt;,h(username,password), h(U&lt;/span&gt;&lt;sub&gt;identifier&lt;/sub&gt;&lt;span style=&quot;font-size: 9pt&quot;&gt;),D&lt;/span&gt;&lt;sub&gt;limit&lt;/sub&gt;&lt;span style=&quot;font-size: 9pt&quot;&gt;}securely in the database&lt;/span&gt;&lt;/div&gt;&lt;span style=&quot;font-size: medium&quot;&gt;&lt;div style=&quot;text-align: justify&quot;&gt;&lt;/div&gt;&lt;/span&gt;" style="rounded=0;whiteSpace=wrap;html=1;align=center;" vertex="1" parent="77e6c97f196da883-3">
          <mxGeometry x="20" y="590" width="180" height="90" as="geometry" />
        </mxCell>
        <mxCell id="PNpXFueBDEGOKT5g1c5p-16" style="edgeStyle=orthogonalEdgeStyle;rounded=0;orthogonalLoop=1;jettySize=auto;html=1;entryX=0.5;entryY=0;entryDx=0;entryDy=0;" edge="1" parent="77e6c97f196da883-1" source="PNpXFueBDEGOKT5g1c5p-2" target="PNpXFueBDEGOKT5g1c5p-3">
          <mxGeometry relative="1" as="geometry" />
        </mxCell>
        <mxCell id="PNpXFueBDEGOKT5g1c5p-18" style="edgeStyle=orthogonalEdgeStyle;rounded=0;orthogonalLoop=1;jettySize=auto;html=1;" edge="1" parent="77e6c97f196da883-1" source="PNpXFueBDEGOKT5g1c5p-4" target="PNpXFueBDEGOKT5g1c5p-5">
          <mxGeometry relative="1" as="geometry" />
        </mxCell>
        <mxCell id="PNpXFueBDEGOKT5g1c5p-20" style="edgeStyle=orthogonalEdgeStyle;rounded=0;orthogonalLoop=1;jettySize=auto;html=1;exitX=1;exitY=0.5;exitDx=0;exitDy=0;entryX=0.5;entryY=0;entryDx=0;entryDy=0;" edge="1" parent="77e6c97f196da883-1" source="PNpXFueBDEGOKT5g1c5p-10" target="PNpXFueBDEGOKT5g1c5p-6">
          <mxGeometry relative="1" as="geometry" />
        </mxCell>
        <mxCell id="PNpXFueBDEGOKT5g1c5p-22" style="edgeStyle=orthogonalEdgeStyle;rounded=0;orthogonalLoop=1;jettySize=auto;html=1;entryX=0.5;entryY=0;entryDx=0;entryDy=0;" edge="1" parent="77e6c97f196da883-1" source="PNpXFueBDEGOKT5g1c5p-6" target="PNpXFueBDEGOKT5g1c5p-7">
          <mxGeometry relative="1" as="geometry" />
        </mxCell>
        <mxCell id="PNpXFueBDEGOKT5g1c5p-24" style="edgeStyle=orthogonalEdgeStyle;rounded=0;orthogonalLoop=1;jettySize=auto;html=1;exitX=0.5;exitY=1;exitDx=0;exitDy=0;entryX=0;entryY=0.5;entryDx=0;entryDy=0;" edge="1" parent="77e6c97f196da883-1" source="PNpXFueBDEGOKT5g1c5p-7" target="PNpXFueBDEGOKT5g1c5p-8">
          <mxGeometry relative="1" as="geometry" />
        </mxCell>
      </root>
    </mxGraphModel>
  </diagram>
</mxfile>
